/* XPM */
static const char * icon_xpm[] = {
"32 32 853 2",
"  	c None",
". 	c #8C9EC7",
"+ 	c #8C9FC8",
"@ 	c #8C9FC5",
"# 	c #8C9FC6",
"$ 	c #8BA0C4",
"% 	c #8CA0C6",
"& 	c #8B9FC5",
"* 	c #8A9EC5",
"= 	c #8B9DC5",
"- 	c #899FC5",
"; 	c #899EC5",
"> 	c #899DC5",
", 	c #8A9DC4",
"' 	c #889CC5",
") 	c #899EC4",
"! 	c #8B9BC5",
"~ 	c #899CC5",
"{ 	c #889BC4",
"] 	c #889CC6",
"^ 	c #8498C3",
"/ 	c #8699C3",
"( 	c #869BC4",
"_ 	c #889CC3",
": 	c #879EC3",
"< 	c #889AC3",
"[ 	c #8799C5",
"} 	c #889DC7",
"| 	c #879CC3",
"1 	c #879CC4",
"2 	c #8B9EC7",
"3 	c #8D9EC6",
"4 	c #8C9DC5",
"5 	c #899EC6",
"6 	c #8A9EC7",
"7 	c #8A9DC8",
"8 	c #8B9EC9",
"9 	c #8A9EC4",
"0 	c #8A9CC5",
"a 	c #879BC4",
"b 	c #889DC5",
"c 	c #879BC5",
"d 	c #8391C5",
"e 	c #8599C3",
"f 	c #859AC6",
"g 	c #8699C4",
"h 	c #849BC2",
"i 	c #8598C2",
"j 	c #8596C5",
"k 	c #849AC2",
"l 	c #869CC3",
"m 	c #889BC1",
"n 	c #889BC3",
"o 	c #8798C6",
"p 	c #8B9EC5",
"q 	c #8B9DC8",
"r 	c #8A9DCA",
"s 	c #899EC7",
"t 	c #899CCA",
"u 	c #889DC6",
"v 	c #899DC4",
"w 	c #889BC5",
"x 	c #889CC4",
"y 	c #8697C4",
"z 	c #7D92C4",
"A 	c #7787C3",
"B 	c #8598C6",
"C 	c #869AC4",
"D 	c #8192C4",
"E 	c #7D8FC4",
"F 	c #7A87C5",
"G 	c #859AC5",
"H 	c #8699C5",
"I 	c #8698C4",
"J 	c #8497C1",
"K 	c #8A9DC6",
"L 	c #8A9DC9",
"M 	c #889EC4",
"N 	c #889BC8",
"O 	c #899DC6",
"P 	c #869BC5",
"Q 	c #8699CA",
"R 	c #8296C3",
"S 	c #7F90C5",
"T 	c #8496C4",
"U 	c #7F93C3",
"V 	c #8194C3",
"W 	c #8296C5",
"X 	c #8497C3",
"Y 	c #8598C4",
"Z 	c #8598C3",
"` 	c #8195C0",
" .	c #8497C2",
"..	c #8296C0",
"+.	c #899EC9",
"@.	c #8597C5",
"#.	c #879FC5",
"$.	c #889CC7",
"%.	c #859BC3",
"&.	c #8398C4",
"*.	c #8396C4",
"=.	c #899BC6",
"-.	c #8E9EC4",
";.	c #7C90C3",
">.	c #879CC5",
",.	c #8196C2",
"'.	c #8094C5",
").	c #8299C3",
"!.	c #8196C3",
"~.	c #7E91C3",
"{.	c #8294C3",
"].	c #8598C7",
"^.	c #8397C4",
"/.	c #8597C2",
"(.	c #8697C3",
"_.	c #8194C2",
":.	c #8396C1",
"<.	c #8296C2",
"[.	c #8395C4",
"}.	c #849AC4",
"|.	c #869AC6",
"1.	c #859BC5",
"2.	c #879AC5",
"3.	c #879AC6",
"4.	c #7F97C2",
"5.	c #778DC4",
"6.	c #8093C4",
"7.	c #707FC1",
"8.	c #6D81C2",
"9.	c #616CC0",
"0.	c #6979C1",
"a.	c #6A75C5",
"b.	c #7588C3",
"c.	c #8092C3",
"d.	c #8196C6",
"e.	c #8295C3",
"f.	c #8395C5",
"g.	c #8397C3",
"h.	c #8394C2",
"i.	c #8297C4",
"j.	c #8595C7",
"k.	c #8294C2",
"l.	c #8393C1",
"m.	c #8495C4",
"n.	c #8798C5",
"o.	c #879AC4",
"p.	c #879AC3",
"q.	c #8796C5",
"r.	c #7C91C4",
"s.	c #7786C3",
"t.	c #5963C0",
"u.	c #5866C0",
"v.	c #5964BF",
"w.	c #535BBF",
"x.	c #5157BB",
"y.	c #505BBA",
"z.	c #5E68C2",
"A.	c #626CC0",
"B.	c #6874BE",
"C.	c #7486C2",
"D.	c #8499C0",
"E.	c #8396C3",
"F.	c #8493C4",
"G.	c #8296C1",
"H.	c #8495C2",
"I.	c #8495C3",
"J.	c #8596C1",
"K.	c #8596C7",
"L.	c #7F8EC0",
"M.	c #899AC7",
"N.	c #8798C4",
"O.	c #8898C6",
"P.	c #889AC2",
"Q.	c #7584C2",
"R.	c #6773C5",
"S.	c #5B65C0",
"T.	c #565CBE",
"U.	c #4C55BF",
"V.	c #4D52BF",
"W.	c #484EBB",
"X.	c #484CB9",
"Y.	c #464EB9",
"Z.	c #4F57BF",
"`.	c #525BBE",
" +	c #515DBF",
".+	c #5E65BE",
"++	c #727DC0",
"@+	c #8293C2",
"#+	c #8199C1",
"$+	c #8297C2",
"%+	c #8292C5",
"&+	c #8295BF",
"*+	c #8395C0",
"=+	c #8193C4",
"-+	c #8291C3",
";+	c #8898C4",
">+	c #8799C4",
",+	c #8191C2",
"'+	c #7085C1",
")+	c #606CC0",
"!+	c #5763BE",
"~+	c #4F58BD",
"{+	c #4A50BE",
"]+	c #454ABE",
"^+	c #3E45B8",
"/+	c #3A46B9",
"(+	c #373EB6",
"_+	c #4845B9",
":+	c #4A4DBC",
"<+	c #4F51BD",
"[+	c #4B52BE",
"}+	c #4F59BD",
"|+	c #5762BD",
"1+	c #7682BF",
"2+	c #8191C0",
"3+	c #8694C2",
"4+	c #8296BE",
"5+	c #8493C1",
"6+	c #8394C1",
"7+	c #8494C0",
"8+	c #899AC4",
"9+	c #8698C3",
"0+	c #8798C3",
"a+	c #8794C4",
"b+	c #6572C1",
"c+	c #5860BF",
"d+	c #4F54BA",
"e+	c #3F45B7",
"f+	c #3D43B8",
"g+	c #3A41B6",
"h+	c #363CB1",
"i+	c #3D43B6",
"j+	c #3036AF",
"k+	c #3438B3",
"l+	c #3F47B8",
"m+	c #3C3FB5",
"n+	c #4549BB",
"o+	c #4B4EB9",
"p+	c #5354BD",
"q+	c #6268BE",
"r+	c #7683C0",
"s+	c #8198C0",
"t+	c #8493BF",
"u+	c #8292C0",
"v+	c #8293C1",
"w+	c #8695C1",
"x+	c #8999C1",
"y+	c #8698C8",
"z+	c #8799C3",
"A+	c #8898C2",
"B+	c #8897C4",
"C+	c #7B8CC2",
"D+	c #6977BF",
"E+	c #5C65BD",
"F+	c #4B53BB",
"G+	c #4045B4",
"H+	c #383FB3",
"I+	c #373CB5",
"J+	c #393EB2",
"K+	c #2A35AE",
"L+	c #292FAA",
"M+	c #2B36AC",
"N+	c #2C36B0",
"O+	c #2E37B1",
"P+	c #2E37B0",
"Q+	c #333AB4",
"R+	c #4148BB",
"S+	c #4C4EBD",
"T+	c #6063BF",
"U+	c #6368BF",
"V+	c #8595C1",
"W+	c #8793C0",
"X+	c #8395BE",
"Y+	c #8593C0",
"Z+	c #8391B9",
"`+	c #8998C3",
" @	c #889AC1",
".@	c #889BC0",
"+@	c #8897C6",
"@@	c #8997C3",
"#@	c #8898C1",
"$@	c #7F8DC1",
"%@	c #616EBE",
"&@	c #4953BB",
"*@	c #404BB7",
"=@	c #3E45B6",
"-@	c #3C42B4",
";@	c #2E37AF",
">@	c #2630AA",
",@	c #222EA5",
"'@	c #222CAD",
")@	c #2633AA",
"!@	c #3536AF",
"~@	c #2731AB",
"{@	c #2B35AB",
"]@	c #303AAF",
"^@	c #4046B7",
"/@	c #4046B4",
"(@	c #5259BF",
"_@	c #7F8BBF",
":@	c #8392C0",
"<@	c #8595BE",
"[@	c #8491BF",
"}@	c #8290BF",
"|@	c #8899C1",
"1@	c #8899C2",
"2@	c #8899C4",
"3@	c #8797C1",
"4@	c #8999C2",
"5@	c #8493C0",
"6@	c #7A8BBF",
"7@	c #5C67BD",
"8@	c #4F55BA",
"9@	c #3E46B5",
"0@	c #313BB1",
"a@	c #2C35AE",
"b@	c #2732AA",
"c@	c #17239C",
"d@	c #131E9E",
"e@	c #1220A2",
"f@	c #1825A1",
"g@	c #1B2AA6",
"h@	c #2330A5",
"i@	c #2830AA",
"j@	c #2E34AD",
"k@	c #323BB0",
"l@	c #3E43B7",
"m@	c #4B51B9",
"n@	c #6065BF",
"o@	c #7683BE",
"p@	c #8B96BE",
"q@	c #8795BF",
"r@	c #8594BC",
"s@	c #8591BF",
"t@	c #8293BF",
"u@	c #8A98C1",
"v@	c #8998C1",
"w@	c #8997C0",
"x@	c #7D8CC3",
"y@	c #6767BC",
"z@	c #545CBA",
"A@	c #4E51BA",
"B@	c #383EB3",
"C@	c #202BAB",
"D@	c #202EA7",
"E@	c #2328A4",
"F@	c #1F2EA8",
"G@	c #1B2A9D",
"H@	c #152598",
"I@	c #1A29A2",
"J@	c #1B2A9E",
"K@	c #1827A0",
"L@	c #2734A5",
"M@	c #2E32AB",
"N@	c #3437B0",
"O@	c #3C41B5",
"P@	c #474EBA",
"Q@	c #585BBD",
"R@	c #686DBF",
"S@	c #818FC0",
"T@	c #8491BE",
"U@	c #8791BF",
"V@	c #8893BF",
"W@	c #8B97C2",
"X@	c #8A9BC1",
"Y@	c #8797C5",
"Z@	c #8999C0",
"`@	c #7F8EBF",
" #	c #5B63BC",
".#	c #4E54B9",
"+#	c #3E43B6",
"@#	c #343DB2",
"##	c #2834AE",
"$#	c #1E2CA6",
"%#	c #1B28A1",
"&#	c #18249E",
"*#	c #1E2999",
"=#	c #3E4CAA",
"-#	c #0F1B97",
";#	c #1A2A9A",
">#	c #14259D",
",#	c #1F2A9E",
"'#	c #2D33AC",
")#	c #363EB1",
"!#	c #3B46B3",
"~#	c #4147B6",
"{#	c #5557BB",
"]#	c #6267BE",
"^#	c #8496BE",
"/#	c #8995BD",
"(#	c #8795BD",
"_#	c #8794BE",
":#	c #8999C3",
"<#	c #8A9AC1",
"[#	c #8D98C3",
"}#	c #889CBF",
"|#	c #8596C0",
"1#	c #5E67BD",
"2#	c #4B50B8",
"3#	c #3642B3",
"4#	c #2F38B0",
"5#	c #2130AC",
"6#	c #2632A9",
"7#	c #191CA0",
"8#	c #132699",
"9#	c #1A2998",
"0#	c #1C2D8F",
"a#	c #131C8E",
"b#	c #0D2393",
"c#	c #13279F",
"d#	c #1421A1",
"e#	c #282EA9",
"f#	c #353CB1",
"g#	c #454DB7",
"h#	c #4B50BA",
"i#	c #6667C3",
"j#	c #7F91C0",
"k#	c #8897BF",
"l#	c #8794BF",
"m#	c #8A94BE",
"n#	c #8994BF",
"o#	c #8C98C2",
"p#	c #8A99C4",
"q#	c #8C9BC0",
"r#	c #8C9AC0",
"s#	c #8B9AC1",
"t#	c #89A0BF",
"u#	c #606ABB",
"v#	c #4952BA",
"w#	c #363BB1",
"x#	c #2D37B0",
"y#	c #1C2AA9",
"z#	c #1827A1",
"A#	c #1B35A0",
"B#	c #14248D",
"C#	c #4247AE",
"D#	c #26349A",
"E#	c #061692",
"F#	c #1523A6",
"G#	c #1825A2",
"H#	c #2E36AB",
"I#	c #3F43B1",
"J#	c #464AB7",
"K#	c #514FBB",
"L#	c #464AB9",
"M#	c #5E64BC",
"N#	c #8F9EBE",
"O#	c #8796BF",
"P#	c #8897C0",
"Q#	c #8896BF",
"R#	c #8A95BE",
"S#	c #8C9AC3",
"T#	c #8D9AC2",
"U#	c #8D9AC1",
"V#	c #8E99C3",
"W#	c #8D99C1",
"X#	c #8E9AC1",
"Y#	c #7787BF",
"Z#	c #5C62BB",
"`#	c #464EB8",
" $	c #3F45B4",
".$	c #2B37AC",
"+$	c #2330AA",
"@$	c #1B27A2",
"#$	c #112196",
"$$	c #0F1B98",
"%$	c #0E23A0",
"&$	c #101B9C",
"*$	c #1726A2",
"=$	c #0C1497",
"-$	c #252EA7",
";$	c #2C35AC",
">$	c #383DB0",
",$	c #3D41B2",
"'$	c #4B4DBA",
")$	c #585ABD",
"!$	c #7983BE",
"~$	c #8A97C1",
"{$	c #8B97BF",
"]$	c #8997BF",
"^$	c #8E9CC1",
"/$	c #8C9CC1",
"($	c #8F9BC2",
"_$	c #8F9CC2",
":$	c #8C99BF",
"<$	c #7F8EC3",
"[$	c #636BBE",
"}$	c #4E52BA",
"|$	c #4747B5",
"1$	c #3741B1",
"2$	c #333DB0",
"3$	c #2C38B0",
"4$	c #2535AB",
"5$	c #1A2AA4",
"6$	c #0F2097",
"7$	c #011192",
"8$	c #1923A1",
"9$	c #2C35AA",
"0$	c #232CA2",
"a$	c #3B3DAE",
"b$	c #3A3EB0",
"c$	c #3B3DB3",
"d$	c #4E4DB7",
"e$	c #5558B9",
"f$	c #7D87C1",
"g$	c #8A97BE",
"h$	c #8C96BE",
"i$	c #8E97BE",
"j$	c #8A97BF",
"k$	c #8D9CC2",
"l$	c #909DC2",
"m$	c #8E9CC2",
"n$	c #9099C5",
"o$	c #8F9DC2",
"p$	c #8B94C1",
"q$	c #6671C0",
"r$	c #545BBE",
"s$	c #5053BC",
"t$	c #4548B5",
"u$	c #373FB0",
"v$	c #3039AD",
"w$	c #2733AE",
"x$	c #2432A6",
"y$	c #222FA7",
"z$	c #1D2AA4",
"A$	c #232FA2",
"B$	c #2D3CA9",
"C$	c #3039AB",
"D$	c #383FB0",
"E$	c #3C44B3",
"F$	c #4144B6",
"G$	c #464BB8",
"H$	c #5C61BE",
"I$	c #737CBE",
"J$	c #8694BE",
"K$	c #8D98BF",
"L$	c #8C99BE",
"M$	c #8F98BE",
"N$	c #8F98C0",
"O$	c #909DC3",
"P$	c #919DC0",
"Q$	c #8F9DC4",
"R$	c #909CC1",
"S$	c #909EC2",
"T$	c #909CC4",
"U$	c #7C8BC0",
"V$	c #5B60BD",
"W$	c #5156BC",
"X$	c #474EB8",
"Y$	c #3F45B6",
"Z$	c #333AB0",
"`$	c #303DB0",
" %	c #383CAE",
".%	c #2732AB",
"+%	c #222FA3",
"@%	c #2F38AC",
"#%	c #3B40B6",
"$%	c #3A42B2",
"%%	c #3F44B5",
"&%	c #474AB7",
"*%	c #4C4FBA",
"=%	c #686DC0",
"-%	c #8793BE",
";%	c #8E99BE",
">%	c #9098BF",
",%	c #8F9BBF",
"'%	c #8F9ABE",
")%	c #8F99C0",
"!%	c #939EC4",
"~%	c #909EC3",
"{%	c #919EC2",
"]%	c #919DC2",
"^%	c #919DC4",
"/%	c #929FC1",
"(%	c #909EC1",
"_%	c #7F8FC1",
":%	c #5D67BD",
"<%	c #5758BD",
"[%	c #484DB7",
"}%	c #4746B6",
"|%	c #414BB4",
"1%	c #3841B0",
"2%	c #353BB1",
"3%	c #383BB1",
"4%	c #3D45B2",
"5%	c #444EB8",
"6%	c #464DB6",
"7%	c #5656B9",
"8%	c #5A5FBD",
"9%	c #6165BE",
"0%	c #7983BD",
"a%	c #97A0C2",
"b%	c #8E9FBF",
"c%	c #8F9CC0",
"d%	c #919ABF",
"e%	c #909ABE",
"f%	c #9097C0",
"g%	c #93A1C3",
"h%	c #929FC4",
"i%	c #929EC4",
"j%	c #939FC3",
"k%	c #91A0C2",
"l%	c #91A0C3",
"m%	c #8C99C3",
"n%	c #7285C0",
"o%	c #626EBE",
"p%	c #555DBE",
"q%	c #535CB9",
"r%	c #4F55B8",
"s%	c #5053BB",
"t%	c #4448B6",
"u%	c #4A4FB7",
"v%	c #464AB6",
"w%	c #373EB3",
"x%	c #494DB7",
"y%	c #5459B8",
"z%	c #5F61BC",
"A%	c #6A71BF",
"B%	c #7F8CC1",
"C%	c #909FC2",
"D%	c #9098C2",
"E%	c #8795C0",
"F%	c #8990C1",
"G%	c #8990C2",
"H%	c #8C98C0",
"I%	c #868EC0",
"J%	c #94A0C3",
"K%	c #94A0C7",
"L%	c #94A0C5",
"M%	c #93A0C5",
"N%	c #95A1C2",
"O%	c #94A1C1",
"P%	c #93A0C4",
"Q%	c #94A0C6",
"R%	c #98A1C4",
"S%	c #8B9CC2",
"T%	c #6E79C1",
"U%	c #5E6ABD",
"V%	c #565FBC",
"W%	c #5A60BE",
"X%	c #5452BC",
"Y%	c #545ABD",
"Z%	c #5358B9",
"`%	c #4F58BA",
" &	c #5158BA",
".&	c #5A61BF",
"+&	c #6167BE",
"@&	c #666EC1",
"#&	c #8797BF",
"$&	c #929DC0",
"%&	c #919DC3",
"&&	c #919CC2",
"*&	c #8F9CBF",
"=&	c #8E99C4",
"-&	c #858BC3",
";&	c #888EC3",
">&	c #858EC0",
",&	c #7C7EC3",
"'&	c #93A2C4",
")&	c #979FC4",
"!&	c #97A0C3",
"~&	c #94A2C5",
"{&	c #94A3C5",
"]&	c #95A3C5",
"^&	c #95A4C3",
"/&	c #95A5C2",
"(&	c #98A0C6",
"_&	c #8190C2",
":&	c #7177C5",
"<&	c #6876C0",
"[&	c #7175C2",
"}&	c #6369BF",
"|&	c #616ABF",
"1&	c #666EBF",
"2&	c #676EBF",
"3&	c #6A70C0",
"4&	c #6F7DC1",
"5&	c #8592C2",
"6&	c #8C9CC4",
"7&	c #96A0C2",
"8&	c #92A1C0",
"9&	c #939FC0",
"0&	c #919EC1",
"a&	c #8B97C3",
"b&	c #868DC2",
"c&	c #8089C2",
"d&	c #8A8FC6",
"e&	c #9097C3",
"f&	c #919AC4",
"g&	c #96A3C3",
"h&	c #96A4C5",
"i&	c #97A3C3",
"j&	c #96A4C6",
"k&	c #96A3C5",
"l&	c #98A2C6",
"m&	c #97A3C4",
"n&	c #97A4C8",
"o&	c #97A3C5",
"p&	c #959FC4",
"q&	c #8F9DC6",
"r&	c #8C9CC3",
"s&	c #8293C4",
"t&	c #7987C4",
"u&	c #7C87C1",
"v&	c #8491C7",
"w&	c #8696C2",
"x&	c #939CC4",
"y&	c #92A1C5",
"z&	c #96A2C4",
"A&	c #95A1C4",
"B&	c #95A2C0",
"C&	c #95A2C2",
"D&	c #959EC2",
"E&	c #8A93C3",
"F&	c #8D96C3",
"G&	c #8F95C2",
"H&	c #959FC3",
"I&	c #97A5C4",
"J&	c #96A4C8",
"K&	c #97A5C6",
"L&	c #96A6C5",
"M&	c #97A6C6",
"N&	c #97A4C7",
"O&	c #99A5C7",
"P&	c #98A5C5",
"Q&	c #97A5C5",
"R&	c #99A5C4",
"S&	c #98A4C5",
"T&	c #95A3C4",
"U&	c #9AA5C4",
"V&	c #97A2C8",
"W&	c #98A7C4",
"X&	c #99A8C3",
"Y&	c #96A1C5",
"Z&	c #97A4C4",
"`&	c #97A6C4",
" *	c #96A4C4",
".*	c #96A3C4",
"+*	c #98A3C4",
"@*	c #98A6C2",
"#*	c #939EC6",
"$*	c #8B93C4",
"%*	c #808AC6",
"&*	c #8E96C3",
"**	c #949FC3",
"=*	c #98A6C5",
"-*	c #98A6C7",
";*	c #98A5C7",
">*	c #98A6C6",
",*	c #9AA7C5",
"'*	c #99A6C4",
")*	c #99A5CA",
"!*	c #99A6C5",
"~*	c #98A7C7",
"{*	c #97A8C6",
"]*	c #99A6C9",
"^*	c #9AA6C6",
"/*	c #91A3C4",
"(*	c #97A4C5",
"_*	c #99A5C6",
":*	c #97A4C6",
"<*	c #97A3C7",
"[*	c #97A2C4",
"}*	c #959FC6",
"|*	c #8D95C4",
"1*	c #909AC8",
"2*	c #939EC0",
"3*	c #8C97C6",
"4*	c #8E9BC6",
"5*	c #98A8C7",
"6*	c #99A7C9",
"7*	c #9AA6C9",
"8*	c #99A6C8",
"9*	c #99A9C8",
"0*	c #99A7C6",
"a*	c #99A8C7",
"b*	c #98A7C8",
"c*	c #98A7C6",
"d*	c #99A8C5",
"e*	c #98A7C5",
"f*	c #99A7C5",
"g*	c #99A6C7",
"h*	c #97A6C5",
"i*	c #99A5C5",
"j*	c #93A0C6",
"k*	c #939FC4",
"l*	c #8F9CC5",
"m*	c #8A95C4",
"n*	c #95A2C5",
"o*	c #99A9CB",
"p*	c #9AA8C7",
"q*	c #99A9C9",
"r*	c #98A9C9",
"s*	c #9BA8C9",
"t*	c #99A8C8",
"u*	c #9AA8C8",
"v*	c #99A8C6",
"w*	c #9AA8C6",
"x*	c #9AA9C5",
"y*	c #99A9C6",
"z*	c #99A8CB",
"A*	c #9AAAC4",
"B*	c #9BA6C8",
"C*	c #9CA6C6",
"D*	c #8E9CC3",
"E*	c #858DC6",
"F*	c #91A6C5",
"G*	c #98A3C7",
"H*	c #929FC6",
"I*	c #99AAC8",
"J*	c #9CA7C8",
"K*	c #9BA8CB",
"L*	c #9AA8CA",
"M*	c #9BA9CC",
"N*	c #9AA9CB",
"O*	c #9AAAC9",
"P*	c #99A9CA",
"Q*	c #9AA9C9",
"R*	c #9BAAC8",
"S*	c #9BA9C8",
"T*	c #9AAAC8",
"U*	c #9AA9C8",
"V*	c #98A8C9",
"W*	c #9BA8C8",
"X*	c #9BA9C9",
"Y*	c #97A7C8",
"Z*	c #9AA7C7",
"`*	c #99A7C7",
" =	c #98A6C9",
".=	c #99A4C9",
"+=	c #96A5C6",
"@=	c #95A2C8",
"#=	c #93A1CA",
"$=	c #95A3C8",
"%=	c #97A7C6",
"&=	c #9AAACA",
"*=	c #9BA9CE",
"==	c #9AABCA",
"-=	c #98A8CB",
";=	c #9BAACD",
">=	c #9CAACA",
",=	c #9BAACC",
"'=	c #99AACA",
")=	c #9BA9CD",
"!=	c #98A6CA",
"~=	c #97A7CA",
"{=	c #9AA9CA",
"]=	c #98A8C8",
"^=	c #9AA8CD",
"/=	c #98A6C8",
"(=	c #97A7C7",
"_=	c #95A4C6",
":=	c #96A7C8",
". + @ # @ $ % & @ * = - ; * > , ' ) ! ~ { ] ^ / ( _ : < [ } | 1 ",
"2 3 4 5 6 7 * 8 9 > 0 a _ b > c d e 0 f g | h i j k ( l m n a o ",
"p q p r s t ) s 5 u ~ v ' w s x y z A B C ^ D E z F g G H o I J ",
"K L M v = N 5 O > ~ ] x c P ] c Q R S I T U V W X I Y Z ^ `  ...",
"+.H @.#.$.} b u { a c 1 %.&.*.=.-.;.>.,.'.).!.~.{.].^./.(._.:.<.",
"[.x _ }.|.1.a 1 { 2.3.|.4.5.6.7.8.9.0.a.b.c.d.e.f.X g.h.i.j.k.l.",
"m.3.n.2.C { c a o.p.q.r.s.t.u.v.w.x.y.z.A.B.C.D.[.E.E.F.G.H.I.J.",
"K.L.T ( n M.N.g O.P.Q.R.S.T.U.V.W.X.Y.Z.`. +.+++@+#+$+%+:.&+*+h.",
"=+-+(.;+[ o >+n.,+'+)+!+~+{+]+^+/+(+_+:+<+[+}+|+1+2+3+4+5+6+*+7+",
"F.,+g 8+9+0+>+ .a+b+c+d+e+f+g+h+i+j+k+l+m+n+o+p+q+r+s+t+t+:.u+v+",
"0+w+x+y+z+A+B+C+D+E+F+G+H+I+J+K+L+M+N+O+P+Q+R+S+T+U+V+W+X+t+Y+Z+",
"`+z+ @.@+@@@#@$@%@&@*@=@-@;@>@,@'@)@!@~@{@]@^@/@X.(@_@:@<@:@[@}@",
"|@1@2@3@4@|@5@6@7@8@9@0@a@b@c@d@e@f@g@h@i@j@k@l@m@n@o@p@q@r@s@t@",
"`+u@v@@@`+w@x@y@z@A@B@C@D@E@F@G@H@I@J@K@L@M@N@O@P@Q@R@S@T@U@<@V@",
"W@x+X@Y@x+Z@`@ #.#+#@###$#%#&#*#=#-#;#>#,#'#)#!#~#{#]#^#/#q@(#_#",
":#<#u@4@[#}#|#1#2#3#4#5#6#7#8#9#0#a#b#c#d#e#f#~#g#h#i#j#k#l#m#n#",
"o#p#q#r#s#t#L.u#v#e+w#x#y#z#A#B#C#D#E#F#G#H#I#J#K#L#M#N#O#P#Q#R#",
"S#T#U#V#W#X#Y#Z#`# $)#.$+$@$#$$$%$&$*$=$-$;$>$,$'$)$!$q@~${$]${$",
"^$/$($($_$:$<$[$}$|$1$2$3$4$5$6$7$8$9$0$a$b$c$d$e$M#f$g$h$h$i$j$",
"k$l$m$n$_$o$p$q$r$s$t$u$v$w$x$y$z$A$B$C$D$E$F$G$H$I$J$K$K$L$M$N$",
"O$P$Q$R$l$S$T$U$V$W$X$Y$Z$`$ %.%+%@%#%J+$%%%&%*%=%-%;%>%,%'%'%)%",
"!%~%{%]%^%/%(%_%:%<%s$[%}%|%1%2%3%4%-@5%6%7%8%9%0%a%($b%c%d%e%f%",
"g%!%h%i%j%k%l%m%n%o%p%q%r%s%h#t%u%v%w%x%y%z%A%B%P$C%D%E%F%G%H%I%",
"J%K%L%M%N%O%P%Q%R%S%T%U%V%W%X%Y%Z%`% &.&+&@&#&$&%&&&*&=&-&;&>&,&",
"'&)&!&~&{&]&^&/&^&(&_&:&<&[&}&|&1&2&3&4&5&6&7&8&9&0&a&b&c&d&e&f&",
"g&h&i&j&k&l&m&n&o&k&p&q&r&s&t&u&v&w&x&y&g&z&A&B&C&D&~$E&F&G&)%H&",
"I&J&K&L&M&N&O&P&Q&R&S&T&U&V&W&o&X&Y&o&Z&`&k& *.*+* *@*#*$*%*&***",
"=*-*-*;*>*,*'*P&)*!*~*=*{*!*]*^*/*(*_*:*:*<*Z&I&Z&[*}*|*1*2*3*4*",
"5*6*7*8*9*0*a*b*c*d*a*a*7*0*c*>*L&!*e*f*g*;*h*i*(*Z&j*p#k*l*m*n*",
"o*p*q*r*s*s*t*t*9*u*v*w*x*y*z*A*B*~*C*d*d*f*c*K&g*x*<*D*E*F*G*H*",
"I*J*K*9*L*M*N*O*P*Q*R*S*T*U*V*W*X*a*-*9*Y*Z*!*`* =-*.=+=@=#=$=%=",
"&=*===-=;=&=>=,='=N*)=&=!=~=&={=N*P*]=^=J*s*b*]*]=8*]*/=v*(=_=:="};
